<?xml version="1.0" standalone="no"?>
<!DOCTYPE svg PUBLIC "-//W3C//DTD SVG 20010904//EN"
 "http://www.w3.org/TR/2001/REC-SVG-20010904/DTD/svg10.dtd">
<svg version="1.0" xmlns="http://www.w3.org/2000/svg"
 width="225.000000pt" height="225.000000pt" viewBox="0 0 225.000000 225.000000"
 preserveAspectRatio="xMidYMid meet">
<metadata>
Created by potrace 1.16, written by Peter Selinger 2001-2019
</metadata>
<g transform="translate(0.000000,225.000000) scale(0.100000,-0.100000)"
fill="#000000" stroke="none">
<path d="M1010 2164 c-287 -56 -491 -214 -603 -467 -134 -304 -59 -657 188
-884 82 -76 196 -143 295 -174 l55 -17 3 -76 c3 -68 0 -80 -22 -109 -14 -18
-32 -50 -41 -70 l-15 -37 -215 -1 c-238 -2 -231 -1 -240 -11 -10 -10 -13 -189
-4 -216 l9 -22 227 2 c214 3 228 4 231 22 2 10 -2 22 -10 27 -7 5 -102 9 -211
9 -184 0 -198 1 -195 18 3 15 21 18 153 22 142 5 150 6 150 25 0 19 -8 20
-152 23 -145 2 -153 4 -153 22 0 20 10 20 666 20 628 0 665 -1 662 -17 -3 -16
-20 -18 -151 -21 -122 -2 -149 -5 -154 -18 -3 -8 -2 -19 3 -24 5 -4 74 -10
154 -12 127 -3 145 -6 148 -21 3 -16 -19 -17 -297 -17 -262 0 -302 -2 -316
-16 -12 -12 -13 -19 -4 -30 9 -11 71 -14 335 -14 320 0 323 0 335 21 16 31 7
208 -12 220 -8 5 -112 9 -231 9 l-217 0 -19 42 c-44 98 -112 132 -256 126
l-96 -3 0 55 0 55 115 0 115 0 0 -26 c0 -34 23 -64 43 -56 11 4 17 21 19 53 3
47 3 48 48 60 165 44 355 190 449 348 40 67 45 100 15 104 -16 2 -29 -11 -59
-63 -94 -159 -239 -276 -421 -337 -60 -20 -88 -23 -209 -22 -123 0 -150 4
-220 27 -114 38 -198 90 -290 182 -91 91 -143 174 -182 290 -24 72 -27 95 -27
220 0 125 3 148 27 220 39 117 91 199 188 297 73 73 101 93 180 131 113 54
208 77 324 77 209 0 397 -84 543 -245 89 -97 140 -203 171 -355 14 -65 22 -86
36 -88 25 -5 34 14 28 62 -36 304 -265 570 -563 656 -74 21 -270 35 -330 24z
m234 -1740 c19 -10 43 -33 56 -55 l21 -39 -196 0 -195 0 19 38 c28 55 67 71
173 72 61 0 98 -5 122 -16z"/>
<path d="M964 2020 c-120 -31 -264 -114 -264 -151 0 -32 26 -33 72 -1 158 108
338 140 520 91 193 -52 361 -226 413 -426 17 -66 20 -196 5 -274 -18 -96 -84
-214 -164 -293 -331 -330 -883 -176 -1001 279 -19 75 -19 201 0 283 16 66 63
167 101 218 28 36 31 62 8 71 -33 12 -124 -131 -160 -252 -22 -72 -25 -275 -5
-345 30 -107 90 -210 169 -290 210 -211 492 -258 762 -127 153 74 286 232 334
397 23 78 31 213 17 294 -47 269 -259 486 -522 536 -80 15 -206 11 -285 -10z"/>
<path d="M985 1904 c-156 -38 -304 -173 -366 -334 -27 -69 -36 -207 -20 -289
22 -110 82 -219 161 -288 35 -32 51 -29 95 18 21 23 53 48 71 55 23 10 34 21
34 34 0 46 -63 32 -132 -29 l-35 -30 -33 34 c-18 18 -29 38 -25 44 3 6 24 20
45 31 49 25 66 53 44 71 -13 10 -24 8 -69 -17 -39 -21 -57 -26 -65 -18 -14 14
-40 110 -40 147 0 26 2 27 55 27 41 0 57 4 62 16 9 25 -14 38 -67 37 -47 -1
-50 1 -50 25 0 25 38 162 44 162 2 0 24 -11 47 -25 57 -32 89 -33 89 -2 0 18
-12 30 -50 51 -27 15 -50 31 -50 35 0 10 116 121 127 121 5 0 19 -20 33 -45
15 -28 32 -45 43 -45 29 0 32 30 7 77 -14 26 -19 47 -14 52 12 12 102 39 139
43 30 3 30 3 35 -57 4 -52 8 -60 25 -60 17 0 21 8 25 60 5 60 5 60 35 57 43
-4 135 -33 142 -45 3 -5 -4 -29 -17 -52 -43 -78 2 -106 48 -30 15 24 32 45 38
45 12 0 124 -114 124 -127 0 -5 -20 -19 -45 -33 -28 -15 -45 -32 -45 -43 0
-29 30 -32 77 -7 26 14 47 20 52 14 13 -13 41 -113 41 -145 0 -27 -2 -28 -57
-31 -50 -3 -58 -6 -58 -23 0 -17 8 -20 58 -23 55 -3 57 -4 57 -31 0 -30 -24
-117 -39 -140 -7 -12 -17 -9 -54 12 -48 28 -77 27 -77 -3 0 -20 39 -55 71 -65
26 -9 24 -19 -12 -60 l-31 -35 -41 33 c-48 38 -101 62 -116 52 -22 -13 -10
-42 24 -58 18 -9 51 -34 72 -57 21 -22 44 -40 51 -40 35 0 115 88 160 176 78
152 66 380 -28 527 -66 104 -189 195 -308 228 -80 23 -201 24 -287 3z"/>
<path d="M1102 1573 c-13 -25 -35 -230 -27 -243 4 -7 17 -9 30 -6 21 5 23 2
34 -82 26 -205 26 -209 1 -222 -18 -10 -25 -9 -38 4 -14 14 -15 28 -5 118 7
56 9 106 7 110 -9 14 -42 9 -48 -8 -3 -9 -11 -58 -18 -109 -8 -73 -8 -100 1
-123 25 -60 110 -74 158 -26 23 24 25 31 20 87 -10 112 -59 471 -68 494 -10
27 -35 30 -47 6z"/>
</g>
</svg>
